# xmcd
#
# Track frame offsets: 
#        182
#        18080
#        37620
#        62790
#        87202
#        110142
#        149097
#        174605
#        195352
#        215465
#        242135
#        269590
#        293742
#        329197
#
# Disc length: 4525 seconds
#
# Revision: 2
# Processed by: cddbd v1.5.2PL0 Copyright (c) Steve Scherf et al.
# Submitted via: ExactAudioCopy v0.95b4
#
DISCID=d411ab0e
DTITLE=Various Artist - Gospel's Greatest Hits [CDTwo)
DYEAR=1994
DGENRE=
TTITLE0=The Clark Sisters - It's Jesus In Me
TTITLE1=Commissioned - If My People
TTITLE2=Danniebelle Hall - O Se Baba (Nigerian Praise)
TTITLE3=The New Jersey Mass Choir - Hold Up The Light
TTITLE4=Commissioned - Ordinary Just Won't Do
TTITLE5=Donald Malloy - Everything Will Be Allright
TTITLE6=Douglas Miller - Unspeakable Joy
TTITLE7=Chicago Mass Choir - He That Believeth
TTITLE8=Vickie Winans - No Cross, No Crown
TTITLE9=L.A. Mass Choir - That's When You Bless Me
TTITLE10=Vickie Winans - We Shall Behold Him
TTITLE11=Sandra Crouch - Completely Yes
TTITLE12=Walter Hawkins and The Love Center Choir - Ghanged
TTITLE13=Andrae Crouch and The Disciples - It Won't Be Long
EXTD=
EXTT0=
EXTT1=
EXTT2=
EXTT3=
EXTT4=
EXTT5=
EXTT6=
EXTT7=
EXTT8=
EXTT9=
EXTT10=
EXTT11=
EXTT12=
EXTT13=
PLAYORDER=
